<svg width="128" height="128" viewBox="0 0 128 128" fill="none" xmlns="http://www.w3.org/2000/svg">
  <defs>
    <linearGradient id="glass" x1="24" y1="22" x2="108" y2="106" gradientUnits="userSpaceOnUse">
      <stop stop-color="#D9E7FF" stop-opacity="0.9"/>
      <stop offset="1" stop-color="#8FB2FF" stop-opacity="0.7"/>
    </linearGradient>
    <linearGradient id="liquid" x1="26" y1="72" x2="102" y2="108" gradientUnits="userSpaceOnUse">
      <stop stop-color="#A78BFA"/>
      <stop offset="0.5" stop-color="#F472B6"/>
      <stop offset="1" stop-color="#FBBF24"/>
    </linearGradient>
  </defs>

  <path d="M53 12H75V28L92 50C99 59 103 69 103 79C103 101 85 116 64 116C43 116 25 101 25 79C25 69 29 59 36 50L53 28V12Z" fill="#0B1020" opacity="0.35"/>

  <path d="M48 14H80V28L96 51C103 60 107 69 107 80C107 103 87 120 64 120C41 120 21 103 21 80C21 69 25 60 32 51L48 28V14Z" fill="url(#glass)"/>

  <path d="M48 14H80V28L96 51C103 60 107 69 107 80C107 103 87 120 64 120C41 120 21 103 21 80C21 69 25 60 32 51L48 28V14Z" stroke="#1F2937" stroke-width="6" stroke-linejoin="round"/>

  <rect x="46" y="8" width="36" height="10" rx="5" fill="#1F2937"/>
  <rect x="52" y="2" width="24" height="8" rx="4" fill="#374151"/>

  <path d="M29 84C29 70 40 64 52 64H76C90 64 99 72 99 84C99 99 84 112 64 112C44 112 29 99 29 84Z" fill="url(#liquid)"/>

  <circle cx="50" cy="82" r="3" fill="#FDF4FF" fill-opacity="0.7"/>
  <circle cx="73" cy="88" r="2.5" fill="#FDF4FF" fill-opacity="0.65"/>
  <circle cx="61" cy="94" r="2" fill="#FDF4FF" fill-opacity="0.6"/>

  <path d="M46 42C46 42 52 38 64 38C76 38 82 42 82 42" stroke="#FFFFFF" stroke-opacity="0.3" stroke-width="3" stroke-linecap="round"/>
</svg>
